<svg width="16" height="16" viewBox="0 0 16 16" fill="none" xmlns="http://www.w3.org/2000/svg">
<g id="fa-solid:city" clip-path="url(#clip0_1733_11803)">
<path id="Vector" d="M15.4 5.57144H12V0.321442C12 -0.0929334 11.7315 -0.428558 11.4 -0.428558H7.8C7.4685 -0.428558 7.2 -0.0929334 7.2 0.321442V2.57144H5.6V0.0714417C5.6 -0.204808 5.421 -0.428558 5.2 -0.428558H4.8C4.579 -0.428558 4.4 -0.204808 4.4 0.0714417V2.57144H2.8V0.0714417C2.8 -0.204808 2.621 -0.428558 2.4 -0.428558H2C1.779 -0.428558 1.6 -0.204808 1.6 0.0714417V2.57144H0.6C0.2685 2.57144 0 2.90707 0 3.32144V14.5714C0 15.1236 0.35825 15.5714 0.8 15.5714H15.2C15.6418 15.5714 16 15.1236 16 14.5714V6.32144C16 5.90707 15.7312 5.57144 15.4 5.57144ZM3.2 12.1964C3.2 12.4036 3.06575 12.5714 2.9 12.5714H1.9C1.73425 12.5714 1.6 12.4036 1.6 12.1964V10.9464C1.6 10.7393 1.73425 10.5714 1.9 10.5714H2.9C3.06575 10.5714 3.2 10.7393 3.2 10.9464V12.1964ZM3.2 9.19644C3.2 9.40363 3.06575 9.57144 2.9 9.57144H1.9C1.73425 9.57144 1.6 9.40363 1.6 9.19644V7.94644C1.6 7.73925 1.73425 7.57144 1.9 7.57144H2.9C3.06575 7.57144 3.2 7.73925 3.2 7.94644V9.19644ZM3.2 6.19644C3.2 6.40363 3.06575 6.57144 2.9 6.57144H1.9C1.73425 6.57144 1.6 6.40363 1.6 6.19644V4.94644C1.6 4.73925 1.73425 4.57144 1.9 4.57144H2.9C3.06575 4.57144 3.2 4.73925 3.2 4.94644V6.19644ZM6.4 12.1964C6.4 12.4036 6.26575 12.5714 6.1 12.5714H5.1C4.93425 12.5714 4.8 12.4036 4.8 12.1964V10.9464C4.8 10.7393 4.93425 10.5714 5.1 10.5714H6.1C6.26575 10.5714 6.4 10.7393 6.4 10.9464V12.1964ZM6.4 9.19644C6.4 9.40363 6.26575 9.57144 6.1 9.57144H5.1C4.93425 9.57144 4.8 9.40363 4.8 9.19644V7.94644C4.8 7.73925 4.93425 7.57144 5.1 7.57144H6.1C6.26575 7.57144 6.4 7.73925 6.4 7.94644V9.19644ZM6.4 6.19644C6.4 6.40363 6.26575 6.57144 6.1 6.57144H5.1C4.93425 6.57144 4.8 6.40363 4.8 6.19644V4.94644C4.8 4.73925 4.93425 4.57144 5.1 4.57144H6.1C6.26575 4.57144 6.4 4.73925 6.4 4.94644V6.19644ZM10.4 9.19644C10.4 9.40363 10.2657 9.57144 10.1 9.57144H9.1C8.93425 9.57144 8.8 9.40363 8.8 9.19644V7.94644C8.8 7.73925 8.93425 7.57144 9.1 7.57144H10.1C10.2657 7.57144 10.4 7.73925 10.4 7.94644V9.19644ZM10.4 6.19644C10.4 6.40363 10.2657 6.57144 10.1 6.57144H9.1C8.93425 6.57144 8.8 6.40363 8.8 6.19644V4.94644C8.8 4.73925 8.93425 4.57144 9.1 4.57144H10.1C10.2657 4.57144 10.4 4.73925 10.4 4.94644V6.19644ZM10.4 3.19644C10.4 3.40363 10.2657 3.57144 10.1 3.57144H9.1C8.93425 3.57144 8.8 3.40363 8.8 3.19644V1.94644C8.8 1.73925 8.93425 1.57144 9.1 1.57144H10.1C10.2657 1.57144 10.4 1.73925 10.4 1.94644V3.19644ZM14.4 12.1964C14.4 12.4036 14.2657 12.5714 14.1 12.5714H13.1C12.9342 12.5714 12.8 12.4036 12.8 12.1964V10.9464C12.8 10.7393 12.9342 10.5714 13.1 10.5714H14.1C14.2657 10.5714 14.4 10.7393 14.4 10.9464V12.1964ZM14.4 9.19644C14.4 9.40363 14.2657 9.57144 14.1 9.57144H13.1C12.9342 9.57144 12.8 9.40363 12.8 9.19644V7.94644C12.8 7.73925 12.9342 7.57144 13.1 7.57144H14.1C14.2657 7.57144 14.4 7.73925 14.4 7.94644V9.19644Z" fill="#777777"/>
</g>
<defs>
<clipPath id="clip0_1733_11803">
<rect width="16" height="16" fill="white"/>
</clipPath>
</defs>
</svg>
